<svg xmlns="http://www.w3.org/2000/svg" xmlns:xlink="http://www.w3.org/1999/xlink" height="2048" style="shape-rendering: geometricPrecision; text-rendering: geometricPrecision; fill-rule: evenodd; clip-rule: evenodd;" version="1.1" width="2048" xml:space="preserve"><rect id="backgroundrect" width="100%" height="100%" x="0" y="0" fill="none" stroke="none" class="" style=""/><defs><style type="text/css">
   <![CDATA[
    .fil1 {fill:#140C00}
    .fil0 {fill:#FF9100}
   ]]>
  </style></defs><g class="currentLayer" style=""><title>Layer 1</title><g class="selected"><rect class="fil0" height="2047.5437376474056" width="2060.1903386125005" x="2.000070571899414" y="3.285837173461914" id="svg_1"/><rect class="fil1" height="1704.3562041970813" width="1714.8727760149688" x="174.65882874498683" y="159.43750155756808" id="svg_2"/><path class="fil0" d="M613.7840344490902,1045.3156529084017 c7.928022340569842,343.73639719470657 288.9952905574385,580.0669679183599 744.1015253934831,425.4705322772479 c0.37752487336047075,-68.70952695160524 -16.04480711781991,-156.48406000791417 -52.09843252374464,-198.95560826096687 c-50.58833303030277,7.172972593848903 -81.7341350825414,28.125603065354902 -147.23470061058268,31.145802052238647 c-372.61705000678234,17.366144174581553 -376.5810611770673,-554.3952765298478 -48.32318379013996,-566.2873100407026 c69.6533391350064,-2.453911676843045 122.506821405472,10.381934017412883 189.13996155359473,27.181790881953724 c34.73228834916309,-45.3029848032562 46.81308429669809,-133.64380516960583 44.73669749321551,-191.4051107937575 c-90.60596960651239,-53.23100714382605 -298.24464995477007,-62.857891414517994 -414.7110733864745,-30.39075230551771 c-227.26997376300199,63.42417872455867 -320.70737991971794,285.4088042605141 -315.6107941293515,503.2406561895043 z" id="svg_3"/></g></g></svg>