<?xml version="1.0" ?><svg id="blue_copy" style="enable-background:new 0 0 100 100;" version="1.1" viewBox="0 0 100 100" xml:space="preserve" xmlns="http://www.w3.org/2000/svg" xmlns:xlink="http://www.w3.org/1999/xlink"><g id="Layer_4_copy" ><path fill = "#38c31d" d="M31.356,25.677l38.625,22.3c1.557,0.899,1.557,3.147,0,4.046l-38.625,22.3c-1.557,0.899-3.504-0.225-3.504-2.023V27.7   C27.852,25.902,29.798,24.778,31.356,25.677z"/><path fill = "#38c31d" d="M69.981,47.977l-38.625-22.3c-0.233-0.134-0.474-0.21-0.716-0.259l37.341,21.559c1.557,0.899,1.557,3.147,0,4.046   l-38.625,22.3c-0.349,0.201-0.716,0.288-1.078,0.301c0.656,0.938,1.961,1.343,3.078,0.699l38.625-22.3   C71.538,51.124,71.538,48.876,69.981,47.977z"/><path fill = "#38c31d" d="M31.356,25.677l38.625,22.3c1.557,0.899,1.557,3.147,0,4.046   l-38.625,22.3c-1.557,0.899-3.504-0.225-3.504-2.023V27.7C27.852,25.902,29.798,24.778,31.356,25.677z" style="fill:none;stroke:#000000;stroke-miterlimit:10;"/></g></svg>